<svg version="1.1" id="Layer_1" xmlns="http://www.w3.org/2000/svg" xmlns:xlink="http://www.w3.org/1999/xlink" x="0px" y="0px"
	viewBox="0 0 232 232" style="enable-background:new 0 0 232 232;" xml:space="preserve">
<path d="M0,20v32v8v152h232V60v-8V20H0z M224,204H8V60h216V204z M224,52H8V28h216V52z"/>
<circle cx="20" cy="40" r="8"/>
<circle cx="40" cy="40" r="8"/>
<circle cx="60" cy="40" r="8"/>
<path d="M96.4,177.7c0.5,0.2,1,0.3,1.6,0.3c1.6,0,3-0.9,3.7-2.4l36-84c0.9-2-0.1-4.4-2.1-5.3c-2-0.9-4.4,0.1-5.3,2.1l-36,84
	C93.5,174.5,94.4,176.8,96.4,177.7z"/>
<path d="M46.3,133.4l39.1,24c0.7,0.4,1.4,0.6,2.1,0.6c1.3,0,2.7-0.7,3.4-1.9c1.2-1.9,0.6-4.3-1.3-5.5L56.1,130l33.5-20.6
	c1.9-1.2,2.5-3.6,1.3-5.5c-1.2-1.9-3.6-2.5-5.5-1.3l-39.1,24c-1.2,0.7-1.9,2-1.9,3.4C44.4,131.4,45.2,132.7,46.3,133.4z"/>
<path d="M142.8,109.4l33.5,20.6l-33.5,20.6c-1.9,1.2-2.5,3.6-1.3,5.5c0.8,1.2,2.1,1.9,3.4,1.9c0.7,0,1.4-0.2,2.1-0.6l39.1-24
	c1.2-0.7,1.9-2,1.9-3.4s-0.7-2.7-1.9-3.4l-39.1-24c-1.9-1.2-4.3-0.6-5.5,1.3C140.3,105.8,140.9,108.2,142.8,109.4z"/>
</svg>